<?xml version="1.0" encoding="UTF-8"?>
<!DOCTYPE svg PUBLIC "-//W3C//DTD SVG 1.1//EN" "http://www.w3.org/Graphics/SVG/1.1/DTD/svg11.dtd">
<!-- Creator: CorelDRAW -->
<svg xmlns="http://www.w3.org/2000/svg" xml:space="preserve" width="43.3493mm" height="43.3493mm" version="1.1" style="shape-rendering:geometricPrecision; text-rendering:geometricPrecision; image-rendering:optimizeQuality; fill-rule:evenodd; clip-rule:evenodd"
viewBox="0 0 4334.92 4334.92"
 xmlns:xlink="http://www.w3.org/1999/xlink"
 xmlns:xodm="http://www.corel.com/coreldraw/odm/2003">
 <defs>
  <style type="text/css">
   <![CDATA[
    .fil0 {fill:none}
    .fil3 {fill:black;fill-rule:nonzero}
    .fil1 {fill:#1F2224;fill-rule:nonzero}
    .fil2 {fill:white;fill-rule:nonzero}
   ]]>
  </style>
 </defs>
 <g id="Слой_x0020_1">
  <metadata id="CorelCorpID_0Corel-Layer"/>
  <rect class="fil0" x="-0" y="-0.01" width="4334.92" height="4334.92"/>
  <path class="fil1" d="M171.83 388.87l1433.11 0c403.15,0 718.23,98.25 945.16,294.73 227.02,196.49 340.53,469.22 340.53,818.21l0 50.8c0,220.2 -54.25,414.96 -162.68,584.36 -108.32,169.41 -259.09,296.46 -452.22,381.16l848.65 1427.92 -919.81 0 -680.97 -1250.07 -559.01 0 0 1250.07 -792.76 0 0 -3557.17zm1316.24 1707.48c206.66,0 360.79,-47.44 462.4,-142.32 101.7,-94.88 152.5,-220.21 152.5,-376.07l0 -40.62c0,-155.86 -50.8,-276.1 -152.5,-360.8 -101.61,-84.7 -254.11,-127.05 -457.31,-127.05l-553.93 0 0 1046.86 548.84 0z"/>
  <path class="fil1" d="M1452.4 3943.74c-62.72,0 -120.34,-9.8 -172.79,-29.34 -51.44,-19.53 -96.2,-46.8 -134.25,-81.76 -37.03,-36.01 -65.84,-78.7 -86.4,-128.09 -20.59,-49.37 -30.88,-103.9 -30.88,-163.56l0 -26.21c0,-58.64 10.29,-112.64 30.88,-162.04 21.58,-49.36 50.91,-92.05 87.94,-128.06 37.04,-37.04 80.74,-65.32 131.16,-84.86 51.44,-20.58 106.99,-30.85 166.64,-30.85l13.88 0c56.57,0 108.53,9.25 155.86,27.76 48.34,18.52 89.49,44.24 123.43,77.16 34.96,31.87 62.22,70.45 81.79,115.73 19.54,44.23 29.3,92.58 29.3,145.04l0 114.18 -597.14 0c7.2,52.46 29.83,94.13 67.91,124.98 38.05,30.85 86.92,46.27 146.58,46.27l9.24 0c48.35,0 92.58,-9.24 132.71,-27.76 40.12,-18.51 72.52,-41.14 97.21,-67.88l112.64 143.49c-19.56,19.54 -42.68,37.56 -69.45,54.01 -25.69,16.44 -54,30.85 -84.85,43.21 -30.86,12.33 -62.76,21.58 -95.68,27.76 -31.87,7.2 -63.77,10.82 -95.67,10.82l-20.06 0zm179.01 -495.33c-3.09,-50.38 -21.08,-91.56 -54,-123.43 -31.9,-31.9 -73.57,-47.85 -125.01,-47.85l-4.6 0c-48.35,0 -89.52,15.46 -123.46,46.31 -33.94,29.83 -56.05,71.5 -66.34,124.97l373.41 0z"/>
  <path class="fil2" d="M2016.07 3124.4l182.07 0c6.19,16.44 11.84,37.53 16.97,63.24 5.17,24.7 7.73,45.78 7.73,63.28 40.12,-48.35 86.4,-84.36 138.86,-108.01 53.5,-23.67 106.98,-35.48 160.49,-35.48l4.63 0c92.58,0 163.03,27.26 211.38,81.76 49.36,53.51 74.06,129.12 74.06,226.83l0 510.72 -229.89 0 0 -461.36c0,-55.54 -11.84,-96.69 -35.51,-123.43 -22.63,-27.78 -58.61,-41.66 -108.01,-41.66l-6.15 0c-55.55,0 -100.83,19.04 -135.79,57.09 -33.95,37.03 -50.92,85.38 -50.92,145.04l0 424.32 -229.92 0 0 -802.34z"/>
  <path class="fil3" d="M2016.08 3106.76l194.22 0 4.32 11.51c3.38,9.03 6.55,18.99 9.45,29.82 2.94,10.96 5.73,23.03 8.34,36.18 1.82,8.83 3.34,17.15 4.54,24.94 12.8,-12.92 26.1,-24.75 39.88,-35.47 24.2,-18.83 50.1,-34.47 77.62,-46.89l0.14 -0.06c27.68,-12.23 55.54,-21.46 83.56,-27.66 28.19,-6.22 56.22,-9.34 84.04,-9.34l4.63 0c48.38,0 91.26,7.24 128.62,21.69 37.76,14.61 69.66,36.55 95.69,65.81 26.42,28.61 46.22,63.06 59.36,103.32 12.93,39.63 19.42,84.78 19.42,135.41l0 528.35 -265.18 0 0 -478.99c0,-26.15 -2.74,-48.73 -8.19,-67.69 -5.19,-18.04 -12.81,-32.75 -22.84,-44.08l-0.48 -0.56c-9.33,-11.47 -21.58,-20.13 -36.67,-25.95 -15.85,-6.11 -35.09,-9.17 -57.7,-9.17l-6.15 0c-25.52,0 -48.47,4.28 -68.8,12.83 -20.3,8.6 -38.34,21.44 -54.04,38.54 -15.32,16.66 -26.84,35.99 -34.53,57.91 -7.8,22.2 -11.7,47.28 -11.7,75.2l0 441.96 -265.19 0 0 -837.61 17.64 0zm169.55 35.28l-151.91 0 0 767.05 194.63 0 0 -406.68c0,-31.72 4.59,-60.67 13.76,-86.78 9.27,-26.4 23.24,-49.79 41.85,-70.1 19.22,-21 41.35,-36.74 66.3,-47.22 24.94,-10.41 52.43,-15.66 82.44,-15.66l6.15 0c26.78,0 50.24,3.89 70.38,11.65 20.8,8.02 37.85,20.15 51.1,36.36 13.48,15.35 23.52,34.5 30.11,57.39 6.37,22.16 9.57,47.95 9.57,77.33l0 443.71 194.62 0 0 -493.07c0,-47.06 -5.89,-88.58 -17.62,-124.53 -11.55,-35.37 -28.82,-65.5 -51.76,-90.38l-0.21 -0.27c-22.26,-25.09 -49.7,-43.96 -82.28,-56.56 -33.08,-12.8 -71.74,-19.21 -115.94,-19.21l-4.63 0c-25.67,0 -51.17,2.8 -76.46,8.38 -25.42,5.62 -51.04,14.14 -76.8,25.52 -24.89,11.23 -48.4,25.44 -70.46,42.61 -22.27,17.32 -42.99,37.53 -62.12,60.57l-31.15 37.51 0 -48.74c0,-8.11 -0.6,-17.07 -1.79,-26.86 -1.25,-10.27 -3.11,-21.24 -5.53,-32.83l-0.07 -0.2c-2.48,-12.49 -5.09,-23.79 -7.78,-33.84 -1.46,-5.45 -2.93,-10.5 -4.4,-15.15z"/>
  <polygon class="fil1" points="3007.56,2815.78 3237.48,2815.78 3237.48,3454.6 3254.45,3454.6 3547.61,3124.4 3797.59,3124.4 3450.4,3493.17 3802.2,3926.74 3535.28,3926.74 3252.9,3554.9 3237.48,3554.9 3237.48,3926.74 3007.56,3926.74 "/>
  <path class="fil1" d="M4027.31 3016.39c-39.08,0 -70.98,-10.29 -95.64,-30.88 -23.68,-21.6 -35.49,-50.38 -35.49,-86.39 0,-34.99 11.81,-63.28 35.49,-84.89 24.66,-22.62 56.56,-33.94 95.64,-33.94 40.12,0 72.54,11.32 97.21,33.94 25.72,21.61 38.58,49.9 38.58,84.89 0,36.01 -12.86,64.79 -38.58,86.39 -24.67,20.59 -57.09,30.88 -97.21,30.88zm-112.62 108.01l229.89 0 0 802.34 -229.89 0 0 -802.34z"/>
 </g>
</svg>
